<svg width="13" height="4" viewBox="0 0 13 4" fill="none" xmlns="http://www.w3.org/2000/svg">
<path d="M2.332 3.132C1.95067 3.132 1.628 3 1.364 2.736C1.1 2.472 0.968 2.14933 0.968 1.768C0.968 1.38667 1.1 1.064 1.364 0.8C1.628 0.536 1.95067 0.404 2.332 0.404C2.69867 0.404 3.00667 0.536 3.256 0.8C3.52 1.064 3.652 1.38667 3.652 1.768C3.652 2.14933 3.52 2.472 3.256 2.736C3.00667 3 2.69867 3.132 2.332 3.132ZM6.95114 3.132C6.56981 3.132 6.24714 3 5.98314 2.736C5.71914 2.472 5.58714 2.14933 5.58714 1.768C5.58714 1.38667 5.71914 1.064 5.98314 0.8C6.24714 0.536 6.56981 0.404 6.95114 0.404C7.31781 0.404 7.62581 0.536 7.87514 0.8C8.13914 1.064 8.27114 1.38667 8.27114 1.768C8.27114 2.14933 8.13914 2.472 7.87514 2.736C7.62581 3 7.31781 3.132 6.95114 3.132ZM11.5703 3.132C11.1889 3.132 10.8663 3 10.6023 2.736C10.3383 2.472 10.2063 2.14933 10.2063 1.768C10.2063 1.38667 10.3383 1.064 10.6023 0.8C10.8663 0.536 11.1889 0.404 11.5703 0.404C11.9369 0.404 12.2449 0.536 12.4943 0.8C12.7583 1.064 12.8903 1.38667 12.8903 1.768C12.8903 2.14933 12.7583 2.472 12.4943 2.736C12.2449 3 11.9369 3.132 11.5703 3.132Z" fill="#7355C7"/>
</svg>
