<svg width="21" height="21" viewBox="0 0 21 21" fill="none" xmlns="http://www.w3.org/2000/svg">
<g clip-path="url(#clip0)">
<path d="M18.8846 2.15172C17.076 0.343151 14.1438 0.343151 12.3353 2.15168L8.46475 6.02221C6.59401 7.89303 6.76721 10.8739 8.46475 12.5715C8.74901 12.8558 9.06354 13.0875 9.39566 13.2779L10.1021 12.5715C10.5654 12.1081 10.4023 11.5664 10.394 11.1755C10.2923 11.1034 10.1934 11.0255 10.1021 10.9341C9.23095 10.0631 9.19178 8.56982 10.1021 7.65951C10.2373 7.52432 13.8905 3.8711 13.9725 3.78906C14.8756 2.88605 16.3442 2.88605 17.2472 3.78906C18.1502 4.69207 18.1502 6.16068 17.2472 7.06369L14.6888 9.62206C14.7628 10.0314 15.2068 11.0011 14.9784 12.6006C14.9896 12.5897 15.0029 12.5826 15.014 12.5715L18.8846 8.70099C20.693 6.89242 20.693 3.96029 18.8846 2.15172Z" fill="#7355C7"/>
<path d="M12.558 8.47821C12.2738 8.19395 11.9592 7.96216 11.6272 7.77179L10.9207 8.47821C10.4573 8.94155 10.6204 9.48326 10.6288 9.87416C10.7305 9.94625 10.8294 10.0242 10.9207 10.1155C11.7919 10.9866 11.831 12.4798 10.9207 13.3901C10.7852 13.5256 6.82943 17.4814 6.75028 17.5606C5.84726 18.4636 4.37865 18.4636 3.47564 17.5606C2.57263 16.6576 2.57263 15.189 3.47564 14.2859L6.33402 11.4276C6.26004 11.0182 5.816 10.0486 6.04443 8.449C6.03328 8.45996 6.01985 8.4671 6.00873 8.47818L1.8383 12.6487C0.0298106 14.4573 0.0298106 17.3894 1.8383 19.198C3.64687 21.0064 6.57897 21.0064 8.38754 19.198L12.558 15.0275C14.3941 13.1914 14.2937 10.2139 12.558 8.47821Z" fill="#7355C7"/>
</g>
<defs>
<clipPath id="clip0">
<rect width="19.759" height="19.759" fill="white" transform="translate(0.481934 0.795166)"/>
</clipPath>
</defs>
</svg>
