<svg width="25" height="24" viewBox="0 0 25 24" fill="none" xmlns="http://www.w3.org/2000/svg">
<g clip-path="url(#clip0)">
<path d="M24.7031 14.8594C24.7031 12.1455 22.4952 9.9375 19.7812 9.9375C18.3338 9.9375 17.0303 10.5657 16.1289 11.5636C15.6041 11.2953 15.0595 11.072 14.5012 10.8955C16.1521 9.84703 17.25 8.00255 17.25 5.90625C17.25 2.64952 14.6005 0 11.3438 0C8.08702 0 5.4375 2.64952 5.4375 5.90625C5.4375 7.998 6.53058 9.83911 8.17547 10.8887C6.57408 11.3908 5.10666 12.2747 3.88598 13.4953C1.89394 15.4874 0.796875 18.1359 0.796875 20.9531V23.2969C0.796875 23.6852 1.11169 24 1.5 24H21.1875C21.5758 24 21.8906 23.6852 21.8906 23.2969V20.9531C21.8906 20.4246 21.8491 19.8916 21.7681 19.3619C23.4952 18.5969 24.7031 16.8667 24.7031 14.8594ZM6.84375 5.90625C6.84375 3.42492 8.86242 1.40625 11.3438 1.40625C13.8251 1.40625 15.8438 3.42492 15.8438 5.90625C15.8438 8.38758 13.8251 10.4062 11.3438 10.4062C8.86242 10.4062 6.84375 8.38758 6.84375 5.90625ZM20.4844 20.9531V22.5938H2.20312V20.9531C2.20312 15.913 6.30361 11.8125 11.3438 11.8125C12.7252 11.8125 14.0927 12.1327 15.3389 12.7415C15.0316 13.3834 14.8594 14.1016 14.8594 14.8594C14.8594 17.5733 17.0673 19.7812 19.7812 19.7812C19.9916 19.7812 20.199 19.7679 20.4024 19.7422C20.4567 20.1461 20.4844 20.5513 20.4844 20.9531V20.9531ZM20.7984 18.2244C20.781 18.2288 20.7636 18.2334 20.7467 18.2391C20.4397 18.327 20.1161 18.375 19.7812 18.375C17.8427 18.375 16.2656 16.7979 16.2656 14.8594C16.2656 12.9209 17.8427 11.3438 19.7812 11.3438C21.7198 11.3438 23.2969 12.9209 23.2969 14.8594C23.2969 16.4443 22.2425 17.787 20.7984 18.2244Z" fill="#A1A1A1"/>
<path d="M21.1875 14.1562H20.4844V13.4531C20.4844 13.0648 20.1696 12.75 19.7812 12.75C19.3929 12.75 19.0781 13.0648 19.0781 13.4531V14.1562H18.375C17.9867 14.1562 17.6719 14.4711 17.6719 14.8594C17.6719 15.2477 17.9867 15.5625 18.375 15.5625H19.0781V16.2656C19.0781 16.6539 19.3929 16.9688 19.7812 16.9688C20.1696 16.9688 20.4844 16.6539 20.4844 16.2656V15.5625H21.1875C21.5758 15.5625 21.8906 15.2477 21.8906 14.8594C21.8906 14.4711 21.5758 14.1562 21.1875 14.1562Z" fill="#A1A1A1"/>
</g>
<defs>
<clipPath id="clip0">
<rect width="24" height="24" fill="white" transform="translate(0.75)"/>
</clipPath>
</defs>
</svg>
