<svg
  xmlns="http://www.w3.org/2000/svg"
  width="15"
  height="15"
  viewBox="0 0 15 15"
  fill="none"
>
  <g clip-path="url(#clip0)">
    <path
      d="M2.18336 14.1038H1.1205L1.87207 13.3522C2.27731 12.947 2.53036 12.4199 2.5984 11.8481C1.54094 11.1542 0.767687 10.2412 0.353763 9.19415C-0.0598672 8.14791 -0.111846 6.99618 0.203462 5.86345C0.581784 4.50427 1.46912 3.26544 2.70197 2.3751C4.04169 1.40764 5.70948 0.89624 7.52507 0.89624C9.81224 0.89624 11.7401 1.55336 13.1001 2.79651C14.3253 3.91648 15 5.42716 15 7.0503C15 7.83888 14.8394 8.60618 14.5228 9.33089C14.1951 10.0808 13.7152 10.7486 13.0966 11.3155C11.7348 12.5636 9.80813 13.2233 7.52504 13.2233C6.6775 13.2233 5.7931 13.1101 5.00349 12.9025C4.25609 13.6692 3.24331 14.1038 2.18336 14.1038ZM7.52507 1.77674C3.88452 1.77674 1.65066 3.94786 1.05171 6.09957C0.485721 8.13294 1.32006 10.0543 3.28358 11.2392L3.50297 11.3716L3.49622 11.6277C3.48283 12.1347 3.36197 12.6231 3.14563 13.0645C3.67244 12.8862 4.15046 12.5631 4.52479 12.1209L4.71093 11.9009L4.98697 11.9835C5.7616 12.2152 6.66297 12.3428 7.52507 12.3428C12.0559 12.3428 14.1195 9.59933 14.1195 7.0503C14.1195 5.67743 13.5465 4.39753 12.506 3.44641C11.311 2.35412 9.58865 1.77674 7.52507 1.77674Z"
      fill="#7355C7"
    />
  </g>
  <defs>
    <clipPath id="clip0">
      <rect width="15" height="15" fill="white" />
    </clipPath>
  </defs>
</svg>