<svg width="25" height="24" viewBox="0 0 25 24" fill="none" xmlns="http://www.w3.org/2000/svg">
<path d="M14.23 21C14.0542 21.3031 13.8018 21.5547 13.4982 21.7295C13.1946 21.9044 12.8504 21.9965 12.5 21.9965C12.1496 21.9965 11.8054 21.9044 11.5018 21.7295C11.1982 21.5547 10.9458 21.3031 10.77 21M22.5 17H2.5C3.29565 17 4.05871 16.6839 4.62132 16.1213C5.18393 15.5587 5.5 14.7956 5.5 14V9C5.5 7.14348 6.2375 5.36301 7.55025 4.05025C8.86301 2.7375 10.6435 2 12.5 2C14.3565 2 16.137 2.7375 17.4497 4.05025C18.7625 5.36301 19.5 7.14348 19.5 9V14C19.5 14.7956 19.8161 15.5587 20.3787 16.1213C20.9413 16.6839 21.7044 17 22.5 17Z" stroke="#2D2D2D" stroke-width="2" stroke-linecap="round" stroke-linejoin="round"/>
</svg>
