<svg width="21" height="21" viewBox="0 0 21 21" fill="none" xmlns="http://www.w3.org/2000/svg">
<path d="M8.98274 7.36421C8.96225 7.42568 8.92294 7.47914 8.87037 7.51703C8.81781 7.55492 8.75466 7.57531 8.68986 7.57531H4.36757V17.1461C4.36794 17.4803 4.25929 17.8055 4.05811 18.0723H18.2606C18.5062 18.072 18.7416 17.9744 18.9153 17.8007C19.0889 17.6271 19.1866 17.3917 19.1869 17.1461V5.7229H9.52985L8.98274 7.36421Z" fill="#7355C7"/>
<path d="M8.46715 6.95786L8.673 6.34039H3.13245V18.0191C3.31288 17.9551 3.46909 17.8368 3.57964 17.6805C3.69019 17.5242 3.74967 17.3375 3.74992 17.146V7.26652C3.74992 7.18464 3.78244 7.10611 3.84034 7.04821C3.89824 6.99031 3.97677 6.95779 4.05865 6.95779L8.46715 6.95786Z" fill="#7355C7"/>
<path d="M9.01435 5.3165C9.03484 5.25504 9.07415 5.20157 9.12671 5.16369C9.17928 5.1258 9.24243 5.10541 9.30722 5.10541H16.7169V4.48794H9.61596C9.55862 4.48793 9.50243 4.47197 9.45366 4.44183C9.40489 4.41169 9.36547 4.36856 9.33983 4.31728L8.80769 3.25311H4.867L4.33485 4.31717C4.30921 4.36845 4.2698 4.41157 4.22103 4.44171C4.17226 4.47185 4.11606 4.48782 4.05873 4.48782H1.89758V17.146C1.89781 17.3374 1.95728 17.5241 2.06783 17.6805C2.17838 17.8368 2.3346 17.9551 2.51505 18.0191V6.03161C2.51505 5.94973 2.54758 5.8712 2.60548 5.8133C2.66338 5.7554 2.74191 5.72288 2.82379 5.72288H8.87885L9.01435 5.3165Z" fill="#7355C7"/>
</svg>
