<svg width="21" height="21" viewBox="0 0 21 21" fill="none" xmlns="http://www.w3.org/2000/svg">
<g clip-path="url(#clip0)">
<path d="M17.4616 9.43793H15.7442V5.1956H10.6574V3.47811C10.6574 2.0357 9.47715 0.855408 8.03474 0.855408C6.59233 0.855408 5.41203 2.0357 5.41203 3.47811V5.1956H0.325317V9.43793H2.39261C3.83502 9.43793 5.01531 10.6182 5.01531 12.0606C5.01531 13.503 3.83502 14.6833 2.39261 14.6833H0.325317V20.6144H5.41203V18.5472C5.41203 17.1047 6.59233 15.9244 8.03474 15.9244C9.47715 15.9244 10.6574 17.1047 10.6574 18.5472V20.6144H15.7442V14.6833H17.4616C18.9041 14.6833 20.0844 13.503 20.0844 12.0606C20.0844 10.6182 18.9041 9.43793 17.4616 9.43793Z" fill="#7355C7"/>
</g>
<defs>
<clipPath id="clip0">
<rect width="19.759" height="19.759" fill="white" transform="translate(0.325317 0.855408)"/>
</clipPath>
</defs>
</svg>
