<svg width="8" height="15" viewBox="0 0 8 15" fill="none" xmlns="http://www.w3.org/2000/svg">
<path d="M0.221658 2.32728C0.454922 2.13185 0.7071 1.94902 0.978191 1.7788C1.25559 1.60858 1.55189 1.46042 1.86712 1.33433C2.18234 1.20194 2.51963 1.10107 2.87898 1.03172C3.24464 0.956067 3.63866 0.918241 4.06106 0.918241C4.65368 0.918241 5.1864 0.997046 5.65924 1.15466C6.13837 1.31227 6.54501 1.53923 6.87915 1.83554C7.21328 2.12554 7.46861 2.47859 7.64514 2.89468C7.82796 3.30447 7.91938 3.76154 7.91938 4.2659C7.91938 4.75134 7.85318 5.16743 7.72079 5.51418C7.5884 5.86092 7.41818 6.16353 7.21013 6.42202C7.00839 6.6805 6.78458 6.90431 6.53871 7.09344C6.29914 7.27627 6.06903 7.44964 5.84837 7.61356C5.63402 7.77747 5.44489 7.93823 5.28097 8.09585C5.12336 8.25346 5.02564 8.42998 4.98781 8.62542L4.72303 9.94935H2.71822L2.51017 8.42683C2.50386 8.389 2.49756 8.35117 2.49126 8.31335C2.49126 8.27552 2.49126 8.2377 2.49126 8.19987C2.49126 7.92247 2.55745 7.67975 2.68985 7.47171C2.82224 7.26366 2.98931 7.07453 3.19105 6.90431C3.39279 6.72778 3.61029 6.56071 3.84356 6.4031C4.07682 6.23919 4.29433 6.06582 4.49607 5.88299C4.69781 5.69385 4.86488 5.48581 4.99727 5.25885C5.12966 5.02558 5.19586 4.75134 5.19586 4.43612C5.19586 4.05785 5.06977 3.75839 4.81759 3.53773C4.57172 3.31078 4.23128 3.1973 3.79628 3.1973C3.46214 3.1973 3.18159 3.23197 2.95463 3.30132C2.73398 3.37067 2.54169 3.44947 2.37778 3.53773C2.22017 3.61969 2.08147 3.69535 1.96168 3.7647C1.8419 3.83404 1.72211 3.86872 1.60233 3.86872C1.33124 3.86872 1.1295 3.75209 0.997104 3.51882L0.221658 2.32728ZM1.96168 13.3632C1.96168 13.1362 2.00266 12.925 2.08462 12.7296C2.17288 12.5342 2.28951 12.364 2.43452 12.2189C2.58582 12.0739 2.76235 11.9605 2.96409 11.8785C3.16583 11.7902 3.38649 11.7461 3.62606 11.7461C3.85932 11.7461 4.07682 11.7902 4.27856 11.8785C4.48031 11.9605 4.65683 12.0739 4.80814 12.2189C4.95944 12.364 5.07608 12.5342 5.15803 12.7296C5.2463 12.925 5.29043 13.1362 5.29043 13.3632C5.29043 13.5902 5.2463 13.8045 5.15803 14.0063C5.07608 14.2017 4.95944 14.3719 4.80814 14.5169C4.65683 14.6619 4.48031 14.7754 4.27856 14.8574C4.07682 14.9393 3.85932 14.9803 3.62606 14.9803C3.38649 14.9803 3.16583 14.9393 2.96409 14.8574C2.76235 14.7754 2.58582 14.6619 2.43452 14.5169C2.28951 14.3719 2.17288 14.2017 2.08462 14.0063C2.00266 13.8045 1.96168 13.5902 1.96168 13.3632Z" fill="#9B9B9B"/>
</svg>
