<svg width="36" height="33" viewBox="0 0 36 33" fill="none" xmlns="http://www.w3.org/2000/svg">
<rect x="1.46667" y="-0.533333" width="33.6201" height="32.161" rx="16.0805" fill="url(#paint0_linear)"/>
<path d="M22.5299 13.1769C22.4887 13.0883 22.3998 13.0315 22.302 13.0315H19.3209L22.263 8.38617C22.3121 8.3087 22.3151 8.21058 22.2708 8.13034C22.2265 8.04982 22.142 8 22.0504 8H18.0253C17.9299 8 17.8429 8.05383 17.8001 8.13912L14.0265 15.6863C13.9875 15.764 13.9918 15.8566 14.0376 15.9308C14.0836 16.005 14.1644 16.0503 14.2517 16.0503H16.8386L14.0197 22.7451C13.9717 22.8596 14.0144 22.9924 14.1203 23.0573C14.1611 23.0823 14.2064 23.0943 14.2514 23.0943C14.3236 23.0943 14.3948 23.0634 14.4441 23.005L22.4945 13.4453C22.5576 13.3703 22.5712 13.2657 22.5299 13.1769Z" fill="white"/>
<rect x="1.46667" y="-0.533333" width="33.6201" height="32.161" rx="16.0805" stroke="#F4F4F4" stroke-width="1.06667"/>
<defs>
<linearGradient id="paint0_linear" x1="18.2767" y1="0" x2="18.2767" y2="31.0943" gradientUnits="userSpaceOnUse">
<stop stop-color="#3000B9"/>
<stop offset="1" stop-color="#190060"/>
</linearGradient>
</defs>
</svg>
