<svg width="20" height="20" viewBox="0 0 20 20" fill="none" xmlns="http://www.w3.org/2000/svg">
<g clip-path="url(#clip0)">
<path d="M19.9656 3.01755C19.9341 2.79783 19.7813 2.6147 19.5708 2.54435C19.3613 2.47341 19.1285 2.52888 18.9711 2.68568L18.1425 3.51482C17.6996 3.95771 16.9277 3.95771 16.4848 3.51482C16.0265 3.05654 16.0268 2.31568 16.4848 1.85771L17.3134 1.02915C17.4702 0.872358 17.5251 0.640053 17.4547 0.429467C17.3843 0.218881 17.2012 0.066108 16.9815 0.0346627C15.888 -0.119829 14.7814 0.247514 13.9992 1.02857C13.1146 1.91376 12.7655 3.21498 13.0888 4.42517L4.42549 13.0881L4.42491 13.0876C3.21928 12.7677 1.91065 13.1167 1.02889 13.9985C0.251821 14.7756 -0.120093 15.8908 0.034399 16.9814C0.0658834 17.2011 0.218657 17.3842 0.429204 17.4546C0.638071 17.525 0.871508 17.4701 1.02889 17.3133L1.85745 16.4841C2.30034 16.0412 3.07225 16.0412 3.51514 16.4841C3.97342 16.9423 3.97319 17.6832 3.51514 18.1412L2.68659 18.9698C2.52979 19.1266 2.47487 19.3589 2.54526 19.5695C2.61565 19.7801 2.79873 19.9328 3.01846 19.9643C4.10909 20.1195 5.20651 19.7639 6.0008 18.9704C6.88541 18.0852 7.23448 16.784 6.9112 15.5738L15.5745 6.91079L15.5751 6.91138C16.787 7.2324 18.0893 6.8822 18.9711 6.00044C19.7481 5.22337 20.1201 4.10818 19.9656 3.01755Z" fill="#7355C7"/>
<path d="M16.4844 12.9688C16.2069 12.9688 15.9214 13.0105 15.5861 13.0992L13.3151 10.8285L10.8286 13.3147L13.0993 15.5855C13.0106 15.9213 12.9688 16.2069 12.9688 16.4844C12.9688 18.423 14.5458 20 16.4844 20C18.4231 20 20.0001 18.423 20.0001 16.4844C20.0001 14.5458 18.4231 12.9688 16.4844 12.9688ZM18.4071 16.3671L18.0586 17.6671C18.0042 17.8691 17.8463 18.027 17.6443 18.0814L16.3443 18.4299C16.1533 18.4825 15.9326 18.4325 15.7784 18.2782L14.8268 17.3267C14.6786 17.1785 14.6208 16.9627 14.6752 16.7608L15.0237 15.4607C15.078 15.2587 15.236 15.1008 15.4379 15.0465L16.7379 14.698C16.9388 14.6419 17.1551 14.7014 17.3038 14.8496L18.2554 15.8012C18.4036 15.9494 18.4614 16.1651 18.4071 16.3671Z" fill="#7355C7"/>
<path d="M6.91082 4.39223C7.2341 3.18203 6.88504 1.88027 6.00043 0.995625C4.67234 -0.331875 2.35547 -0.331875 1.02855 0.995625C-0.341875 2.36664 -0.341875 4.59707 1.02855 5.9675C1.90918 6.84813 3.21324 7.2023 4.42516 6.87789L6.68609 9.17117L9.17211 6.68543L6.91082 4.39223ZM5.37844 3.30562L5.02996 4.60566C4.97559 4.80766 4.81766 4.96559 4.6157 5.01992L3.31566 5.3684C3.12469 5.42105 2.90402 5.37105 2.74977 5.21676L1.7982 4.2652C1.65 4.11699 1.59223 3.90129 1.64656 3.6993L1.99504 2.39926C2.04941 2.19727 2.20734 2.03934 2.4093 1.985L3.70934 1.63652C3.91133 1.5816 4.12703 1.63996 4.27523 1.78816L5.2268 2.73973C5.375 2.88793 5.43277 3.10363 5.37844 3.30562Z" fill="#7355C7"/>
</g>
<defs>
<clipPath id="clip0">
<rect width="20" height="20" fill="white"/>
</clipPath>
</defs>
</svg>
